<?xml version="1.0" encoding="UTF-8" standalone="no"?>
<!-- Created with Inkscape (http://www.inkscape.org/) -->

<svg
   xmlns:dc="http://purl.org/dc/elements/1.1/"
   xmlns:cc="http://creativecommons.org/ns#"
   xmlns:rdf="http://www.w3.org/1999/02/22-rdf-syntax-ns#"
   xmlns:svg="http://www.w3.org/2000/svg"
   xmlns="http://www.w3.org/2000/svg"
   xmlns:xlink="http://www.w3.org/1999/xlink"
   xmlns:sodipodi="http://sodipodi.sourceforge.net/DTD/sodipodi-0.dtd"
   xmlns:inkscape="http://www.inkscape.org/namespaces/inkscape"
   width="132.09"
   height="138.36"
   id="svg4347"
   version="1.1"
   inkscape:version="0.48.4 r"
   sodipodi:docname="favicon.svg">
  <defs
     id="defs4349">
    <radialGradient
       inkscape:collect="always"
       xlink:href="#linearGradient7253-4"
       id="radialGradient9054"
       gradientUnits="userSpaceOnUse"
       gradientTransform="translate(0,8.9136403e-5)"
       cx="176"
       cy="307.36218"
       fx="176"
       fy="307.36218"
       r="15.00011" />
    <linearGradient
       inkscape:collect="always"
       id="linearGradient7253-4">
      <stop
         style="stop-color:#ff8000;stop-opacity:1;"
         offset="0"
         id="stop7255-4" />
      <stop
         style="stop-color:#ff8000;stop-opacity:0;"
         offset="1"
         id="stop7257-9" />
    </linearGradient>
  </defs>
  <sodipodi:namedview
     id="base"
     pagecolor="#ffffff"
     bordercolor="#666666"
     borderopacity="1.0"
     inkscape:pageopacity="0.0"
     inkscape:pageshadow="2"
     inkscape:zoom="1"
     inkscape:cx="375"
     inkscape:cy="95.01896"
     inkscape:document-units="px"
     inkscape:current-layer="g8848"
     showgrid="false"
     inkscape:window-width="1600"
     inkscape:window-height="838"
     inkscape:window-x="-8"
     inkscape:window-y="-8"
     inkscape:window-maximized="1" />
  <metadata
     id="metadata4352">
    <rdf:RDF>
      <cc:Work
         rdf:about="">
        <dc:format>image/svg+xml</dc:format>
        <dc:type
           rdf:resource="http://purl.org/dc/dcmitype/StillImage" />
        <dc:title />
      </cc:Work>
    </rdf:RDF>
  </metadata>
  <g
     inkscape:label="Calque 1"
     inkscape:groupmode="layer"
     id="layer1"
     transform="translate(0,-913.98832)">
    <g
       style="display:inline"
       id="g8848"
       transform="matrix(0.15423729,0,0,0.15423729,-9.421482,488.22513)">
      <g
         transform="matrix(2.9477524,0,0,2.9477524,176.13408,2548.8833)"
         id="g8787">
        <path
           style="fill:none;stroke:none"
           d="m 80.00421,311.35577 c -0.17127,-10.20898 4.804751,-18.70965 11.114252,-18.98677 0.09154,-0.004 0.183109,-0.006 0.274683,-0.007 l 0.03543,18.49172 z"
           id="path4593"
           inkscape:connector-curvature="0" />
        <g
           id="g8864" />
        <g
           id="g8885"
           transform="translate(-106.15437,-94.722358)">
          <g
             id="g8879">
            <g
               id="g8867">
              <path
                 transform="matrix(0.62056627,0,0,0.61242669,166.23068,115.93731)"
                 style="fill:#f9f9f9;fill-opacity:1;stroke:none"
                 d="m 111.4512,301.17188 c -0.92058,-33.91357 25.82553,-62.15222 59.7391,-63.0728 33.91357,-0.92057 62.15222,25.82554 63.0728,59.73911 0.92057,33.91357 -25.82554,62.15222 -59.73911,63.0728 -33.14411,0.89968 -61.02128,-24.66549 -62.98732,-57.76346"
                 id="path4603-5"
                 inkscape:connector-curvature="0" />
            </g>
            <g
               id="g8870">
              <path
                 transform="translate(97,-7.9999956)"
                 style="fill:#000000;fill-opacity:1;stroke:none"
                 d="m 161.00552,307.7692 c -0.22479,-8.28122 6.30624,-15.1767 14.58746,-15.40149 8.28122,-0.2248 15.17671,6.30623 15.4015,14.58745 0.22479,8.28122 -6.30624,15.17671 -14.58746,15.4015 -8.09333,0.21969 -14.90054,-6.02297 -15.38063,-14.10503"
                 id="path5373-2"
                 inkscape:connector-curvature="0" />
            </g>
          </g>
          <g
             id="g8874">
            <path
               style="fill:#f9f9f9;fill-opacity:1;stroke:none;stroke-width:1;marker-start:none"
               d="m 111.4512,301.17188 c -0.92058,-33.91357 25.82553,-62.15222 59.7391,-63.0728 33.91357,-0.92057 62.15222,25.82554 63.0728,59.73911 0.92057,33.91357 -25.82554,62.15222 -59.73911,63.0728 -33.14411,0.89968 -61.02128,-24.66549 -62.98732,-57.76346"
               id="path4603"
               inkscape:connector-curvature="0" />
            <path
               transform="matrix(0.70358634,0,0,0.65032561,48.652535,101.1615)"
               style="fill:#000000;fill-opacity:1;stroke:url(#radialGradient9054)"
               d="m 161.00552,307.7692 c -0.22479,-8.28122 6.30624,-15.1767 14.58746,-15.40149 8.28122,-0.2248 15.17671,6.30623 15.4015,14.58745 0.22479,8.28122 -6.30624,15.17671 -14.58746,15.4015 -8.09333,0.21969 -14.90054,-6.02297 -15.38063,-14.10503"
               id="path5373"
               inkscape:connector-curvature="0" />
            <path
               style="fill:#f9f9f9;fill-opacity:1;stroke:#000000;stroke-width:1px;stroke-linecap:butt;stroke-linejoin:miter;stroke-opacity:1"
               d="m 235.38682,299.64012 c 0,0.28653 0,0.57307 0,0.8596 0,0.0477 0,0.19102 0,0.14326 0,-0.0955 0,-0.38204 0,-0.28653 0,0.14327 0,0.28653 0,0.4298 0,0.43798 -0.10024,-0.34375 0.14327,0.14327 0.0185,0.037 0,0.75805 0,0.8596 0,0.0526 0.006,0.5673 0,0.57306 -0.0338,0.0338 -0.0955,0 -0.14327,0"
               id="path7235"
               inkscape:connector-curvature="0" />
          </g>
          <path
             sodipodi:nodetypes="cccccc"
             inkscape:connector-curvature="0"
             id="path8737"
             d="m 227.62788,331.67463 7.64121,-20.51064 11.26075,19.30413 c 7.97199,21.88254 12.78322,42.18469 16.48894,61.93409 7.79745,37.08088 2.6973,26.87059 1.60868,31.36921 -10.39535,-39.79476 -15.83663,-62.81346 -36.99958,-92.09679 z"
             style="fill:#ff6600;fill-opacity:1;stroke:#fc7903;stroke-width:1px;stroke-linecap:butt;stroke-linejoin:miter;stroke-opacity:1" />
        </g>
      </g>
    </g>
  </g>
</svg>
