<svg xmlns="http://www.w3.org/2000/svg" xmlns:xlink="http://www.w3.org/1999/xlink" version="1.1" x="0px" y="0px" viewBox="0 0 100 125" enable-background="new 0 0 100 100" xml:space="preserve"><path fill="#000000" d="M19,33h62c1.104,0,2-0.896,2-2s-0.896-2-2-2H19c-1.104,0-2,0.896-2,2S17.896,33,19,33z"/><path fill="#000000" d="M19,53h62c1.104,0,2-0.896,2-2s-0.896-2-2-2H19c-1.104,0-2,0.896-2,2S17.896,53,19,53z"/><path fill="#000000" d="M19,73h62c1.104,0,2-0.896,2-2s-0.896-2-2-2H19c-1.104,0-2,0.896-2,2S17.896,73,19,73z"/><text x="0" y="115" fill="#000000" font-size="5px" font-weight="bold" font-family="'Helvetica Neue', Helvetica, Arial-Unicode, Arial, Sans-serif">Created by Austin Condiff</text><text x="0" y="120" fill="#000000" font-size="5px" font-weight="bold" font-family="'Helvetica Neue', Helvetica, Arial-Unicode, Arial, Sans-serif">from the Noun Project</text></svg>