<svg xmlns="http://www.w3.org/2000/svg" xmlns:xlink="http://www.w3.org/1999/xlink" version="1.1" x="0px" y="0px" viewBox="0 0 100 125" enable-background="new 0 0 100 100" xml:space="preserve"><path fill="#000000" d="M93,90H9V9c0-1.104-0.896-2-2-2S5,7.896,5,9v83c0,1.104,0.896,2,2,2h86c1.104,0,2-0.896,2-2S94.104,90,93,90  z"/><path fill="#000000" d="M19.99,56C16.136,56,13,59.136,13,62.99V79.01c0,3.854,3.136,6.99,6.99,6.99h9.021  c3.854,0,6.99-3.136,6.99-6.99V62.99c0-3.854-3.136-6.99-6.99-6.99H19.99z M32,62.99V79.01c0,1.648-1.341,2.99-2.99,2.99H19.99  C18.341,82,17,80.659,17,79.01V62.99c0-1.648,1.341-2.99,2.99-2.99h9.021C30.659,60,32,61.341,32,62.99z"/><path fill="#000000" d="M46.99,37C43.136,37,40,40.136,40,43.99V79.01c0,3.854,3.136,6.99,6.99,6.99h9.021  c3.854,0,6.99-3.136,6.99-6.99V43.99c0-3.854-3.136-6.99-6.99-6.99H46.99z M59,43.99V79.01c0,1.648-1.341,2.99-2.99,2.99H46.99  C45.341,82,44,80.659,44,79.01V43.99c0-1.648,1.341-2.99,2.99-2.99h9.021C57.659,41,59,42.341,59,43.99z"/><path fill="#000000" d="M73.99,14C70.136,14,67,17.136,67,20.99V79.01c0,3.854,3.136,6.99,6.99,6.99h9.021  c3.854,0,6.99-3.136,6.99-6.99V20.99c0-3.854-3.136-6.99-6.99-6.99H73.99z M86,20.99V79.01c0,1.648-1.341,2.99-2.99,2.99H73.99  C72.341,82,71,80.659,71,79.01V20.99c0-1.648,1.341-2.99,2.99-2.99h9.021C84.659,18,86,19.341,86,20.99z"/><text x="0" y="115" fill="#000000" font-size="5px" font-weight="bold" font-family="'Helvetica Neue', Helvetica, Arial-Unicode, Arial, Sans-serif">Created by Austin Condiff</text><text x="0" y="120" fill="#000000" font-size="5px" font-weight="bold" font-family="'Helvetica Neue', Helvetica, Arial-Unicode, Arial, Sans-serif">from the Noun Project</text></svg>