<svg xmlns="http://www.w3.org/2000/svg" xmlns:xlink="http://www.w3.org/1999/xlink" version="1.1" x="0px" y="0px" viewBox="0 0 100 125" enable-background="new 0 0 100 100" xml:space="preserve"><path fill="#000000" d="M84.521,48.937c2.752-2.642,4.476-6.347,4.476-10.454c0-7.998-6.507-14.505-14.505-14.505  s-14.505,6.507-14.505,14.505c0,4.14,1.753,7.871,4.544,10.516c-3.075,1.53-5.779,3.749-7.89,6.503  c-2.444-2.153-5.216-3.943-8.248-5.294c4.655-3.857,7.626-9.679,7.626-16.183c0-11.586-9.426-21.013-21.013-21.013  c-11.587,0-21.013,9.426-21.013,21.013c0,6.508,2.975,12.333,7.635,16.191C9.939,55.434,2.062,67.223,2.062,80.213  c0,1.104,0.896,2,2,2s2-0.896,2-2c0-12.325,8.072-23.422,19.726-27.335c2.788,1.369,5.91,2.16,9.22,2.16  c3.313,0,6.438-0.792,9.229-2.164c11.611,3.871,19.659,14.98,19.659,27.339c0,1.104,0.896,2,2,2s2-0.896,2-2  c0-8.223-3.136-15.96-8.375-21.858c2.25-3.106,5.382-5.438,8.977-6.681c1.83,0.835,3.856,1.313,5.995,1.313  c2.17,0,4.222-0.492,6.072-1.35c7.421,2.504,12.56,9.62,12.56,17.535c0,1.104,0.896,2,2,2s2-0.896,2-2  C97.125,60.531,92.088,52.66,84.521,48.937z M27.49,49.263c-0.281-0.284-0.639-0.476-1.031-0.553  c-5.053-2.953-8.464-8.422-8.464-14.686c0-9.381,7.632-17.013,17.013-17.013s17.013,7.632,17.013,17.013  c0,6.301-3.451,11.8-8.554,14.741c-0.277,0.08-0.532,0.219-0.75,0.407c-2.317,1.184-4.932,1.866-7.708,1.866  C32.307,51.038,29.761,50.389,27.49,49.263z M69.634,47.787c-0.056-0.032-0.113-0.059-0.172-0.086  c-3.259-1.786-5.475-5.248-5.475-9.219c0-5.793,4.712-10.505,10.505-10.505s10.505,4.712,10.505,10.505  c0,5.792-4.712,10.505-10.505,10.505C72.74,48.987,71.089,48.55,69.634,47.787z"/><text x="0" y="115" fill="#000000" font-size="5px" font-weight="bold" font-family="'Helvetica Neue', Helvetica, Arial-Unicode, Arial, Sans-serif">Created by Austin Condiff</text><text x="0" y="120" fill="#000000" font-size="5px" font-weight="bold" font-family="'Helvetica Neue', Helvetica, Arial-Unicode, Arial, Sans-serif">from the Noun Project</text></svg>