<svg xmlns="http://www.w3.org/2000/svg" xmlns:xlink="http://www.w3.org/1999/xlink" version="1.1" x="0px" y="0px" viewBox="0 0 100 125" enable-background="new 0 0 100 100" xml:space="preserve"><path fill="#000000" d="M85.953,16H37.772C32.935,16,29,20.056,29,24.893v30.285C29,60.042,32.958,64,37.822,64H62v7.914  c0,2.278,1.971,4.132,4.256,4.132c1.096,0,2.187-0.435,2.959-1.213L80.196,64h5.707C90.919,64,95,59.919,95,54.902V25.167  C95,20.179,90.941,16,85.953,16z M91,54.902C91,57.713,88.713,60,85.902,60h-6.53c-0.527,0-1.034,0.208-1.408,0.58L66.443,72.004  c-0.042,0.042-0.172,0.042-0.188,0.042c-0.024,0-0.256-0.006-0.256-0.132V62c0-1.104-0.67-2-1.775-2H37.822  C35.163,60,33,57.837,33,55.178V24.893C33,22.261,35.141,20,37.772,20h48.181C88.736,20,91,22.384,91,25.167V54.902z"/><path fill="#000000" d="M11.704,77h3.488l8.664,8.692c0.712,0.718,1.661,1.08,2.629,1.08c0.476,0,0.858-0.101,1.318-0.291  C29.198,85.907,30,84.552,30,83.043V77h17.517C51.853,77,55,74.05,55,70.036c0-1.104-0.896-2.018-2-2.018s-2,0.922-2,2.027  C51,72.068,49.25,73,47.517,73H28.199C27.095,73,26,73.824,26,74.929v7.411l-8.655-8.784C16.97,73.177,16.559,73,16.025,73h-4.321  C9.662,73,8,71.267,8,69.225V45.664C8,43.644,9.644,42,11.664,42H23c1.104,0,2-0.896,2-2s-0.896-2-2-2H11.664  C7.438,38,4,41.438,4,45.664v23.561C4,73.473,7.456,77,11.704,77z"/><text x="0" y="115" fill="#000000" font-size="5px" font-weight="bold" font-family="'Helvetica Neue', Helvetica, Arial-Unicode, Arial, Sans-serif">Created by Austin Condiff</text><text x="0" y="120" fill="#000000" font-size="5px" font-weight="bold" font-family="'Helvetica Neue', Helvetica, Arial-Unicode, Arial, Sans-serif">from the Noun Project</text></svg>