<svg xmlns="http://www.w3.org/2000/svg" xmlns:xlink="http://www.w3.org/1999/xlink" version="1.1" x="0px" y="0px" viewBox="0 0 100 125" enable-background="new 0 0 100 100" xml:space="preserve"><path fill="#000000" d="M97.481,9.656c-0.002-0.003-0.005-0.006-0.007-0.009c-0.175-0.289-0.393-0.553-0.652-0.784  c-1.029-0.92-2.493-1.14-4.017-0.603C91.087,8.866,6.2,38.779,4.528,39.368c-1.531,0.54-2.5,1.705-2.528,3.042  c-0.01,0.498,0.132,2.193,2.399,3.101l18.921,7.581c0.019,0.008,0.037,0.016,0.056,0.023l9.751,3.908l-4.823,25.387  c-0.023,0.123-0.035,0.248-0.035,0.374c0,2.02,1.16,2.751,1.659,2.972c0.214,0.095,0.58,0.216,1.046,0.216  c0.624,0,1.428-0.216,2.294-1.002c1.185-1.075,13.17-15.458,17.338-20.471l1.265,0.507l24.81,13.354  c1.278,0.688,2.817,0.748,4.117,0.161c1.284-0.581,2.209-1.727,2.538-3.145c0.494-2.131,14.224-61.303,14.533-62.624  c0.12-0.521,0.157-1.025,0.115-1.501C98.055,10.688,97.887,10.104,97.481,9.656z M24.923,49.425  c-0.019-0.008-0.037-0.016-0.056-0.023L7.658,42.507c10.517-3.706,63.49-22.373,80.928-28.519L35.083,53.496L24.923,49.425z   M48.522,60.75c-0.021,0.023-0.041,0.046-0.061,0.07c-4.758,5.729-11.8,14.155-15.493,18.472l4.257-22.406l44.072-32.543  L48.522,60.75z M79.44,74.472c-0.063,0.272-0.195,0.36-0.289,0.403c-0.171,0.078-0.386,0.063-0.573-0.038L53.669,61.429  c-0.066-0.035-0.134-0.067-0.203-0.095l-0.063-0.025l39.195-43.54C89.046,33.07,79.843,72.734,79.44,74.472z"/><text x="0" y="115" fill="#000000" font-size="5px" font-weight="bold" font-family="'Helvetica Neue', Helvetica, Arial-Unicode, Arial, Sans-serif">Created by Austin Condiff</text><text x="0" y="120" fill="#000000" font-size="5px" font-weight="bold" font-family="'Helvetica Neue', Helvetica, Arial-Unicode, Arial, Sans-serif">from the Noun Project</text></svg>