<svg xmlns="http://www.w3.org/2000/svg" xmlns:xlink="http://www.w3.org/1999/xlink" version="1.1" x="0px" y="0px" viewBox="0 0 100 125" enable-background="new 0 0 100 100" xml:space="preserve"><circle fill="#000000" cx="35.5" cy="45.86" r="3.506"/><path fill="#000000" d="M50,8C27.233,8,8,27.233,8,50s19.233,42,42,42s42-19.233,42-42S72.767,8,50,8z M50,88  c-20.598,0-38-17.402-38-38s17.402-38,38-38s38,17.402,38,38S70.598,88,50,88z"/><path fill="#000000" d="M69.341,62.271c-0.955-0.554-2.179-0.229-2.733,0.726c-2.416,4.161-6.595,7.141-11.492,8.373  c-0.017,0.003-0.033,0.008-0.05,0.012c-1.623,0.404-3.324,0.617-5.065,0.617c-1.749,0-3.457-0.214-5.085-0.622  c-0.006-0.001-0.013-0.003-0.019-0.004c-4.903-1.23-9.087-4.212-11.504-8.376c-0.555-0.956-1.778-1.28-2.734-0.726  s-1.53,1.778-0.976,2.733C32.405,69.697,37,73.156,42,74.845v1.908C42,80.858,45.84,84,49.945,84h0.109  C54.16,84,57,80.858,57,76.753v-1.909c6-1.688,10.093-5.147,12.816-9.839C70.371,64.049,70.296,62.825,69.341,62.271z M53,76.753  c0,1.9-1.045,3.247-2.945,3.247h-0.109C48.045,80,46,78.653,46,76.753v-1.007c2,0.161,2.314,0.253,3.5,0.253s2.5-0.092,3.5-0.253  V76.753z"/><path fill="#000000" d="M58,47h10c1.104,0,2-0.896,2-2s-0.896-2-2-2H58c-1.104,0-2,0.896-2,2S56.896,47,58,47z"/><text x="0" y="115" fill="#000000" font-size="5px" font-weight="bold" font-family="'Helvetica Neue', Helvetica, Arial-Unicode, Arial, Sans-serif">Created by Austin Condiff</text><text x="0" y="120" fill="#000000" font-size="5px" font-weight="bold" font-family="'Helvetica Neue', Helvetica, Arial-Unicode, Arial, Sans-serif">from the Noun Project</text></svg>