<svg xmlns="http://www.w3.org/2000/svg" xmlns:xlink="http://www.w3.org/1999/xlink" version="1.1" x="0px" y="0px" viewBox="0 0 100 125" enable-background="new 0 0 100 100" xml:space="preserve"><path fill="#000000" d="M66.621,45.708c3.355,0,6.51-1.307,8.883-3.68c4.898-4.898,4.898-12.868,0-17.767  c-2.373-2.373-5.527-3.68-8.883-3.68c-3.356,0-6.511,1.307-8.883,3.68c-4.898,4.898-4.898,12.868,0,17.767  C60.11,44.401,63.265,45.708,66.621,45.708z M60.566,27.09c1.618-1.618,3.768-2.508,6.055-2.508c2.287,0,4.437,0.891,6.055,2.508  c3.338,3.338,3.338,8.771,0,12.109c-1.618,1.618-3.768,2.508-6.055,2.508c-2.288,0-4.438-0.891-6.055-2.508  C57.228,35.861,57.228,30.429,60.566,27.09z"/><path fill="#000000" d="M15.19,55.442l4.434,4.434c-3.204,3.648-5.499,7.994-6.53,12.421L9.517,87.642  c-0.157,0.673,0.045,1.38,0.534,1.868c0.379,0.38,0.89,0.586,1.414,0.586c0.151,0,0.304-0.017,0.454-0.052l15.218-3.549  c4.46-1.04,8.835-3.365,12.5-6.606l4.718,4.718c0.077,0.122,0.166,0.238,0.272,0.344l10.776,10.777  c0.379,0.379,0.89,0.585,1.414,0.585c0.163,0,0.327-0.02,0.489-0.061c0.683-0.172,1.225-0.69,1.427-1.365l9.09-30.334l14.038-14.005  c5.355-5.344,8.814-12.422,9.739-19.931l2.854-23.165c0.076-0.611-0.135-1.224-0.571-1.659c-0.436-0.435-1.044-0.647-1.659-0.57  L69.252,8.056C61.757,8.98,54.689,12.43,49.35,17.769L35.083,32.036L5.306,41.501c-0.665,0.212-1.172,0.755-1.337,1.433  s0.036,1.394,0.529,1.887l10.351,10.352C14.953,55.276,15.069,55.364,15.19,55.442z M26.229,82.599l-12.085,2.818l2.847-12.212  c0.866-3.716,2.789-7.376,5.473-10.491l6.578,6.578c0.077,0.122,0.166,0.238,0.272,0.344c0.106,0.106,0.222,0.195,0.344,0.272  l7.148,7.148C33.672,79.778,29.977,81.725,26.229,82.599z M55.863,90.529l-6.994-6.994l12.979-12.979L55.863,90.529z M52.178,20.598  c4.712-4.712,10.949-7.756,17.563-8.572l20.43-2.52L87.63,30.127C86.814,36.754,83.762,43,79.036,47.716L46.039,80.634  L33.591,68.186l18.968-18.969c0.781-0.781,0.781-2.047,0-2.828s-2.048-0.781-2.828,0L30.762,65.357l-6.833-6.833  c-0.033-0.04-0.06-0.082-0.097-0.119c-0.038-0.038-0.082-0.065-0.122-0.1l-4.583-4.583l18.548-18.548  c0.076-0.075,0.119-0.169,0.18-0.254L52.178,20.598z M28.93,38.189L16.226,50.893l-6.575-6.576L28.93,38.189z"/><text x="0" y="115" fill="#000000" font-size="5px" font-weight="bold" font-family="'Helvetica Neue', Helvetica, Arial-Unicode, Arial, Sans-serif">Created by Austin Condiff</text><text x="0" y="120" fill="#000000" font-size="5px" font-weight="bold" font-family="'Helvetica Neue', Helvetica, Arial-Unicode, Arial, Sans-serif">from the Noun Project</text></svg>