<?xml version="1.0" encoding="UTF-8" standalone="no"?>
<svg
   xmlns:dc="http://purl.org/dc/elements/1.1/"
   xmlns:cc="http://creativecommons.org/ns#"
   xmlns:rdf="http://www.w3.org/1999/02/22-rdf-syntax-ns#"
   xmlns:svg="http://www.w3.org/2000/svg"
   xmlns="http://www.w3.org/2000/svg"
   xmlns:sodipodi="http://sodipodi.sourceforge.net/DTD/sodipodi-0.dtd"
   xmlns:inkscape="http://www.inkscape.org/namespaces/inkscape"
   version="1.1"
   x="0px"
   y="0px"
   viewBox="0 0 100 125"
   enable-background="new 0 0 100 100"
   xml:space="preserve"
   id="svg2"
   inkscape:version="0.48.4 r"
   width="100%"
   height="100%"
   sodipodi:docname="picto_cc.svg"><metadata
     id="metadata18"><rdf:RDF><cc:Work
         rdf:about=""><dc:format>image/svg+xml</dc:format><dc:type
           rdf:resource="http://purl.org/dc/dcmitype/StillImage" /></cc:Work></rdf:RDF></metadata><defs
     id="defs16" /><sodipodi:namedview
     pagecolor="#ffffff"
     bordercolor="#666666"
     borderopacity="1"
     objecttolerance="10"
     gridtolerance="10"
     guidetolerance="10"
     inkscape:pageopacity="0"
     inkscape:pageshadow="2"
     inkscape:window-width="1600"
     inkscape:window-height="838"
     id="namedview14"
     showgrid="false"
     inkscape:zoom="1.888"
     inkscape:cx="50"
     inkscape:cy="62.5"
     inkscape:window-x="-8"
     inkscape:window-y="-8"
     inkscape:window-maximized="1"
     inkscape:current-layer="svg2" /><g
     id="g2995"
     transform="translate(0,11.122881)"><path
       id="path4"
       d="m 38.156,64.088 c 3.562,0 6.961,-1.333 9.573,-3.751 0.81,-0.75 0.858,-2.016 0.108,-2.826 -0.751,-0.811 -2.016,-0.859 -2.827,-0.108 -1.869,1.732 -4.304,2.686 -6.854,2.686 -5.563,0 -10.088,-4.526 -10.088,-10.088 0,-5.562 4.525,-10.088 10.088,-10.088 2.548,0 4.98,0.952 6.849,2.681 0.811,0.75 2.076,0.701 2.827,-0.11 0.75,-0.811 0.701,-2.076 -0.11,-2.826 -2.61,-2.415 -6.007,-3.745 -9.565,-3.745 -7.769,0 -14.088,6.32 -14.088,14.088 0,7.768 6.318,14.087 14.087,14.087 z"
       inkscape:connector-curvature="0"
       style="fill:#000000" /><path
       id="path6"
       d="m 65.156,64.088 c 3.562,0 6.961,-1.333 9.573,-3.751 0.81,-0.75 0.858,-2.016 0.108,-2.826 -0.751,-0.811 -2.016,-0.859 -2.827,-0.108 -1.869,1.732 -4.304,2.686 -6.854,2.686 -5.563,0 -10.088,-4.526 -10.088,-10.088 0,-5.562 4.525,-10.088 10.088,-10.088 2.548,0 4.98,0.952 6.849,2.681 0.811,0.75 2.076,0.701 2.827,-0.11 0.75,-0.811 0.701,-2.076 -0.11,-2.826 -2.61,-2.415 -6.007,-3.745 -9.565,-3.745 -7.769,0 -14.088,6.32 -14.088,14.088 0,7.768 6.318,14.087 14.087,14.087 z"
       inkscape:connector-curvature="0"
       style="fill:#000000" /><path
       id="path8"
       d="M 50,92 C 72.766,92 92,72.767 92,50 92,27.233 72.766,8 50,8 27.234,8 8,27.233 8,50 8,72.767 27.234,92 50,92 z M 50,12 C 70.598,12 88,29.402 88,50 88,70.598 70.598,88 50,88 29.402,88 12,70.598 12,50 12,29.402 29.402,12 50,12 z"
       inkscape:connector-curvature="0"
       style="fill:#000000" /></g></svg>