<svg xmlns="http://www.w3.org/2000/svg" xmlns:xlink="http://www.w3.org/1999/xlink" version="1.1" x="0px" y="0px" viewBox="0 0 100 125" enable-background="new 0 0 100 100" xml:space="preserve"><path fill="#000000" d="M79.093,96H21.907C18.099,96,15,92.901,15,89.092V10.907C15,7.099,18.099,4,21.907,4h57.186  C82.901,4,86,7.099,86,10.907v78.185C86,92.901,82.901,96,79.093,96z M21.907,8C20.304,8,19,9.304,19,10.907v78.185  C19,90.696,20.304,92,21.907,92h57.186C80.696,92,82,90.696,82,89.092V10.907C82,9.304,80.696,8,79.093,8H21.907z"/><path fill="#000000" d="M76,82H25c-1.104,0-2-0.896-2-2V18c0-1.104,0.896-2,2-2h51c1.104,0,2,0.896,2,2v62  C78,81.104,77.104,82,76,82z M27,78h47V20H27V78z"/><circle fill="#000000" cx="51" cy="12" r="2"/><circle fill="#000000" cx="51" cy="87" r="2.938"/><text x="0" y="115" fill="#000000" font-size="5px" font-weight="bold" font-family="'Helvetica Neue', Helvetica, Arial-Unicode, Arial, Sans-serif">Created by Austin Condiff</text><text x="0" y="120" fill="#000000" font-size="5px" font-weight="bold" font-family="'Helvetica Neue', Helvetica, Arial-Unicode, Arial, Sans-serif">from the Noun Project</text></svg>