<svg xmlns="http://www.w3.org/2000/svg" xmlns:xlink="http://www.w3.org/1999/xlink" version="1.1" x="0px" y="0px" viewBox="0 0 100 125" enable-background="new 0 0 100 100" xml:space="preserve"><path fill="#000000" d="M48.586,63.414C48.977,63.805,49.488,64,50,64s1.023-0.195,1.414-0.586l18-18  c0.781-0.781,0.781-2.047,0-2.828s-2.047-0.781-2.828,0L50,59.172L33.414,42.586c-0.781-0.781-2.047-0.781-2.828,0  s-0.781,2.047,0,2.828L48.586,63.414z"/><path fill="#000000" d="M8,50c0,22.767,19.233,42,42,42s42-19.233,42-42S72.767,8,50,8S8,27.233,8,50z M50,12  c20.598,0,38,17.402,38,38S70.598,88,50,88S12,70.598,12,50S29.402,12,50,12z"/><text x="0" y="115" fill="#000000" font-size="5px" font-weight="bold" font-family="'Helvetica Neue', Helvetica, Arial-Unicode, Arial, Sans-serif">Created by Austin Condiff</text><text x="0" y="120" fill="#000000" font-size="5px" font-weight="bold" font-family="'Helvetica Neue', Helvetica, Arial-Unicode, Arial, Sans-serif">from the Noun Project</text></svg>