<svg xmlns="http://www.w3.org/2000/svg" xmlns:xlink="http://www.w3.org/1999/xlink" version="1.1" x="0px" y="0px" viewBox="0 0 100 125" enable-background="new 0 0 100 100" xml:space="preserve"><path fill="#000000" d="M70.67,57H29.328c-1.104,0-2,0.868-2,1.972c0,10.768,9.535,18.569,22.672,18.569  c13.136,0,22.67-7.795,22.67-18.562C72.67,57.875,71.775,57,70.67,57z M50,73.583C39.882,73.583,32.572,68,31.472,61h37.055  C67.426,68,60.117,73.583,50,73.583z"/><path fill="#000000" d="M50,8C27.234,8,8,27.233,8,50s19.234,42,42,42s42-19.233,42-42S72.766,8,50,8z M50,88  c-20.598,0-38-17.402-38-38s17.402-38,38-38s38,17.402,38,38S70.598,88,50,88z"/><path fill="#000000" d="M58,47h10c1.104,0,2-0.896,2-2s-0.896-2-2-2H58c-1.104,0-2,0.896-2,2S56.896,47,58,47z"/><path fill="#000000" d="M32,47h10c1.104,0,2-0.896,2-2s-0.896-2-2-2H32c-1.104,0-2,0.896-2,2S30.896,47,32,47z"/><text x="0" y="115" fill="#000000" font-size="5px" font-weight="bold" font-family="'Helvetica Neue', Helvetica, Arial-Unicode, Arial, Sans-serif">Created by Austin Condiff</text><text x="0" y="120" fill="#000000" font-size="5px" font-weight="bold" font-family="'Helvetica Neue', Helvetica, Arial-Unicode, Arial, Sans-serif">from the Noun Project</text></svg>