<svg xmlns="http://www.w3.org/2000/svg" xmlns:xlink="http://www.w3.org/1999/xlink" version="1.1" x="0px" y="0px" viewBox="0 0 100 125" enable-background="new 0 0 100 100" xml:space="preserve"><circle fill="#000000" cx="51" cy="21" r="2"/><path fill="#000000" d="M88.093,12H12c-3.809,0-7,3.099-7,6.907v44.522C5,63.611,4.907,63.8,4.907,64S5,64.389,5,64.571V72  c0,3.809,3.191,7,7,7h36v7H32c-1.104,0-2,0.896-2,2s0.896,2,2,2h36c1.104,0,2-0.896,2-2s-0.896-2-2-2H52v-7h36.093  C91.901,79,95,75.809,95,72V18.907C95,15.099,91.901,12,88.093,12z M12,16h76.093C89.696,16,91,17.304,91,18.907V62H9V18.907  C9,17.304,10.397,16,12,16z M88.093,75H12c-1.603,0-3-1.397-3-3v-6h82v6C91,73.603,89.696,75,88.093,75z"/><text x="0" y="115" fill="#000000" font-size="5px" font-weight="bold" font-family="'Helvetica Neue', Helvetica, Arial-Unicode, Arial, Sans-serif">Created by Austin Condiff</text><text x="0" y="120" fill="#000000" font-size="5px" font-weight="bold" font-family="'Helvetica Neue', Helvetica, Arial-Unicode, Arial, Sans-serif">from the Noun Project</text></svg>