<svg xmlns="http://www.w3.org/2000/svg" xmlns:xlink="http://www.w3.org/1999/xlink" version="1.1" x="0px" y="0px" viewBox="0 0 100 125" enable-background="new 0 0 100 100" xml:space="preserve"><path fill="#000000" d="M50,77.527c13.136,0,22.67-7.788,22.67-18.555c0-1.104-0.896-1.972-2-1.972H29.328c-1.104,0-2,0.868-2,1.972  C27.328,69.74,36.863,77.527,50,77.527z M68.526,61c-1.1,7-8.409,12.583-18.526,12.583C39.882,73.583,32.572,68,31.472,61H68.526z"/><circle fill="#000000" cx="36.5" cy="44.86" r="3.506"/><path fill="#000000" d="M50,92c22.766,0,42-19.233,42-42S72.766,8,50,8S8,27.233,8,50S27.234,92,50,92z M50,12  c20.598,0,38,17.402,38,38S70.598,88,50,88S12,70.598,12,50S29.402,12,50,12z"/><circle fill="#000000" cx="64.994" cy="45.86" r="3.506"/><text x="0" y="115" fill="#000000" font-size="5px" font-weight="bold" font-family="'Helvetica Neue', Helvetica, Arial-Unicode, Arial, Sans-serif">Created by Austin Condiff</text><text x="0" y="120" fill="#000000" font-size="5px" font-weight="bold" font-family="'Helvetica Neue', Helvetica, Arial-Unicode, Arial, Sans-serif">from the Noun Project</text></svg>