<svg xmlns="http://www.w3.org/2000/svg" xmlns:xlink="http://www.w3.org/1999/xlink" version="1.1" x="0px" y="0px" viewBox="0 0 100 125" enable-background="new 0 0 100 100" xml:space="preserve"><path fill="#000000" d="M34.611,96h30.324C70.937,96,76,90.777,76,84.776v-6.954c0-0.251,0.181-0.528,0.181-0.822  S76,76.429,76,76.178V18.822c0-0.251,0.181-0.528,0.181-0.822S76,17.429,76,17.178v-3.485C76,7.691,70.937,3,64.936,3H34.611  C28.61,3,24,7.691,24,13.692v71.084C24,90.777,28.61,96,34.611,96z M72,75H28V20h44V75z M64.936,92H34.611  C30.816,92,28,88.572,28,84.776V79h44v5.776C72,88.572,68.731,92,64.936,92z M34.611,7h30.324C68.731,7,72,9.897,72,13.692V16H28  v-2.308C28,9.897,30.816,7,34.611,7z"/><circle fill="#000000" cx="49.496" cy="85.972" r="3.796"/><text x="0" y="115" fill="#000000" font-size="5px" font-weight="bold" font-family="'Helvetica Neue', Helvetica, Arial-Unicode, Arial, Sans-serif">Created by Austin Condiff</text><text x="0" y="120" fill="#000000" font-size="5px" font-weight="bold" font-family="'Helvetica Neue', Helvetica, Arial-Unicode, Arial, Sans-serif">from the Noun Project</text></svg>