<svg xmlns="http://www.w3.org/2000/svg" xmlns:xlink="http://www.w3.org/1999/xlink" version="1.1" x="0px" y="0px" viewBox="0 0 100 125" enable-background="new 0 0 100 100" xml:space="preserve"><path fill="#000000" d="M5.142,96.36c0.512,0,1.024-0.195,1.414-0.586l11.489-11.489c1.774,1.209,4.065,1.831,6.852,1.831  c14.508,0,39.895-16.405,55.094-31.605c9.374-9.374,14.794-18.084,16.11-25.889c1.188-7.045-0.872-13.278-6.121-18.528  c-4.274-4.275-9.248-6.442-14.782-6.442c-8.761,0-18.731,5.528-29.634,16.431c-9.826,9.826-19.287,22.8-25.309,34.706  c-4.418,8.734-8.571,20.01-4.915,26.545L3.728,92.946c-0.781,0.781-0.781,2.047,0,2.828C4.118,96.165,4.63,96.36,5.142,96.36z   M20.964,81.366l21.002-21.002c0.077,0.009,0.153,0.022,0.233,0.022c0.056,0,0.112-0.002,0.169-0.007l27.921-2.331  C54.56,71.611,35.17,82.116,24.897,82.116C23.306,82.116,21.995,81.861,20.964,81.366z M77.163,51.683  c-0.653,0.653-1.322,1.3-1.997,1.944l-28.873,2.41L60.581,41.75c0.077,0.009,0.154,0.022,0.233,0.022  c0.061,0,0.123-0.003,0.185-0.009l26.38-2.421C84.884,43.247,81.477,47.368,77.163,51.683z M87.152,12.923  c4.281,4.281,5.965,9.339,5.005,15.034c-0.384,2.277-1.188,4.664-2.394,7.149l-24.817,2.277l13.292-13.292  c0.781-0.781,0.781-2.047,0-2.829c-0.78-0.781-2.048-0.781-2.828,0L51.446,45.227l2.522-27.483  c7.883-6.703,15.004-10.092,21.229-10.092C79.632,7.652,83.654,9.425,87.152,12.923z M48.392,22.912  c0.4-0.4,0.795-0.779,1.192-1.164L47.023,49.65L33.515,63.159l2.56-26.006C39.819,32.183,43.977,27.327,48.392,22.912z   M31.409,43.72l-2.352,23.896l-10.67,10.67C16.338,71.916,21.907,57.932,31.409,43.72z"/><text x="0" y="115" fill="#000000" font-size="5px" font-weight="bold" font-family="'Helvetica Neue', Helvetica, Arial-Unicode, Arial, Sans-serif">Created by Austin Condiff</text><text x="0" y="120" fill="#000000" font-size="5px" font-weight="bold" font-family="'Helvetica Neue', Helvetica, Arial-Unicode, Arial, Sans-serif">from the Noun Project</text></svg>